0.16m3min_grf.mot
version=1
nRows=15
nColumns 19
inDegrees=yes
endheader
time	1_ground_force_vx	1_ground_force_vy	1_ground_force_vz	1_ground_force_px	1_ground_force_py	1_ground_force_pz	1_ground_torque_x	1_ground_torque_y	1_ground_torque_z	2_ground_force_vx	2_ground_force_vy	2_ground_force_vz	2_ground_force_px	2_ground_force_py	2_ground_force_pz	2_ground_torque_x	2_ground_torque_y	2_ground_torque_z
            1.253500	           -0.273294	           -3.427067	            0.444555	           -0.233013	            0.005581	           -0.255695	           -0.900824	           -0.053730	           -0.479553	            0.237744	           -1.100027	           -1.130316	           -0.232311	            0.006130	           -0.833667	           -0.488356	           -0.048153	           -0.245014
            1.254000	           -0.273456	           -3.787205	            0.351298	           -0.233013	            0.005581	           -0.255695	           -0.896606	            0.038540	           -0.441559	            0.144750	           -1.284849	           -1.037077	           -0.232311	            0.006130	           -0.833667	           -0.582317	           -0.039039	           -0.244940
            1.254500	           -0.318808	           -5.229733	            0.436940	           -0.233013	            0.005581	           -0.255695	           -0.936945	            0.001218	           -0.368330	            0.099976	           -1.838132	           -0.851316	           -0.232311	            0.006130	           -0.833667	           -0.619649	           -0.105344	           -0.245160
            1.255000	           -0.503030	           -3.065794	            0.263247	           -0.233013	            0.005581	           -0.255695	           -0.855613	           -0.100211	           -0.452055	            0.147449	           -2.021777	           -0.945849	           -0.232311	            0.006130	           -0.833667	           -0.600899	           -0.086640	           -0.169700
            1.255500	           -0.273097	           -4.508661	            0.439918	           -0.233013	            0.005581	           -0.255695	           -0.956328	           -0.183310	           -0.442336	            0.192202	           -1.468326	           -1.178539	           -0.232311	            0.006130	           -0.833667	           -0.525637	           -0.124045	           -0.207567
            1.256000	           -0.044436	           -3.967033	            0.258244	           -0.233013	            0.005581	           -0.255695	           -0.948727	           -0.238831	           -0.395242	            0.333520	           -1.652803	           -0.944615	           -0.232311	            0.006130	           -0.833667	           -0.600873	           -0.096025	           -0.188584
            1.256500	           -0.273618	           -4.147343	            0.258040	           -0.233013	            0.005581	           -0.255695	           -0.873519	           -0.137325	           -0.385963	           -0.087485	           -1.838307	           -0.992021	           -0.232311	            0.006130	           -0.833667	           -0.525782	           -0.086167	           -0.226282
            1.257000	           -0.456843	           -4.327841	            0.303578	           -0.233013	            0.005581	           -0.255695	           -0.875548	            0.029215	           -0.449451	            0.238429	           -1.284343	           -1.084045	           -0.232311	            0.006130	           -0.833667	           -0.563489	           -0.048492	           -0.226131
            1.257500	           -0.136170	           -4.327386	            0.211070	           -0.233013	            0.005581	           -0.255695	           -0.909016	            0.075328	           -0.379093	            0.097920	           -1.285185	           -0.990129	           -0.232311	            0.006130	           -0.833667	           -0.619743	           -0.077053	           -0.226209
            1.258000	           -0.273714	           -4.868013	            0.163236	           -0.233013	            0.005581	           -0.255695	           -0.944305	            0.001390	           -0.403965	            0.191641	           -1.285014	           -0.943241	           -0.232311	            0.006130	           -0.833667	           -0.525765	           -0.086301	           -0.188582
            1.258500	           -0.319119	           -4.147942	            0.395722	           -0.233013	            0.005581	           -0.255695	           -0.898165	           -0.118859	           -0.387777	            0.190955	           -1.100699	           -0.989512	           -0.232311	            0.006130	           -0.833667	           -0.582045	           -0.105477	           -0.169775
            1.259000	           -0.273292	           -4.688533	            0.347433	           -0.233013	            0.005581	           -0.255695	           -0.933520	           -0.238769	           -0.442624	            0.050385	           -1.101039	           -1.036381	           -0.232311	            0.006130	           -0.833667	           -0.582181	           -0.067666	           -0.169640
            1.259500	           -0.227562	           -4.688328	            0.301463	           -0.233013	            0.005581	           -0.255695	           -0.818687	           -0.276104	           -0.347124	           -0.044500	           -0.734252	           -0.706530	           -0.232311	            0.006130	           -0.833667	           -0.600848	           -0.096227	           -0.132033
            1.260000	           -0.273504	           -4.147540	            0.303896	           -0.233013	            0.005581	           -0.255695	           -0.781526	           -0.109737	           -0.348477	            0.051132	           -1.285856	           -0.849325	           -0.232311	            0.006130	           -0.833667	           -0.544593	           -0.076849	           -0.207390
            1.260500	           -0.182142	           -4.867798	            0.117153	           -0.233013	            0.005581	           -0.255695	           -0.942342	            0.010674	           -0.400021	           -0.085409	           -2.391421	           -0.806280	           -0.232311	            0.006130	           -0.833667	           -0.544577	           -0.076984	           -0.169690
